<?xml version="1.0" encoding="UTF-8" standalone="no"?>
<!-- Created with Inkscape (http://www.inkscape.org/) -->

<svg
   xmlns:dc="http://purl.org/dc/elements/1.1/"
   xmlns:cc="http://creativecommons.org/ns#"
   xmlns:rdf="http://www.w3.org/1999/02/22-rdf-syntax-ns#"
   xmlns:svg="http://www.w3.org/2000/svg"
   xmlns="http://www.w3.org/2000/svg"
   xmlns:sodipodi="http://sodipodi.sourceforge.net/DTD/sodipodi-0.dtd"
   xmlns:inkscape="http://www.inkscape.org/namespaces/inkscape"
   width="394.77649mm"
   height="93.793648mm"
   viewBox="0 0 394.77649 93.793648"
   version="1.1"
   id="svg1013"
   inkscape:version="0.92.4 (5da689c313, 2019-01-14)"
   sodipodi:docname="Title.svg">
  <defs
     id="defs1007" />
  <sodipodi:namedview
     id="base"
     pagecolor="#ffffff"
     bordercolor="#666666"
     borderopacity="1.0"
     inkscape:pageopacity="0.0"
     inkscape:pageshadow="2"
     inkscape:zoom="0.35"
     inkscape:cx="184.60575"
     inkscape:cy="294.3907"
     inkscape:document-units="mm"
     inkscape:current-layer="layer1"
     showgrid="false"
     fit-margin-top="0"
     fit-margin-left="0"
     fit-margin-right="0"
     fit-margin-bottom="0"
     inkscape:window-width="2863"
     inkscape:window-height="933"
     inkscape:window-x="0"
     inkscape:window-y="0"
     inkscape:window-maximized="0" />
  <metadata
     id="metadata1010">
    <rdf:RDF>
      <cc:Work
         rdf:about="">
        <dc:format>image/svg+xml</dc:format>
        <dc:type
           rdf:resource="http://purl.org/dc/dcmitype/StillImage" />
        <dc:title></dc:title>
      </cc:Work>
    </rdf:RDF>
  </metadata>
  <g
     inkscape:label="Layer 1"
     inkscape:groupmode="layer"
     id="layer1"
     transform="translate(81.727533,-132.93056)">
    <path
       inkscape:connector-curvature="0"
       id="path11736"
       style="font-style:normal;font-variant:normal;font-weight:bold;font-stretch:normal;font-size:68.61177063px;line-height:1.25;font-family:'Inknut Antiqua';-inkscape-font-specification:'Inknut Antiqua Bold';letter-spacing:0px;word-spacing:0px;fill:#550000;fill-opacity:1;stroke:none;stroke-width:1.83781528"
       d="m -56.714721,193.91327 c 0.269359,-0.63022 -23.255281,-0.89765 -23.741902,-0.14019 0.448015,-0.38695 0.718215,-3.69808 0.875635,-3.9494 -0.325294,-0.22578 7.010299,-5.66527 6.444752,-5.17454 0.48104,-0.73906 -0.493913,-25.35688 0.260464,-24.91744 0.159755,-0.45205 -9.110238,-1.39456 -8.846226,-0.82432 0.02334,0.26039 3.997925,-5.05277 3.308617,-5.07958 -0.651675,-0.62181 24.241382,0.89412 24.093329,0.27411 0.316013,-0.0319 -0.04825,4.09618 -0.440693,4.26669 0.792105,0.36427 -5.84497,4.42066 -6.45879,4.11606 0.14548,-0.20137 0.956515,23.55722 0.180867,24.21105 -0.242557,-0.16302 7.298569,2.41774 7.590516,2.58669 0.568963,-0.66326 -1.96188,3.91416 -1.852549,4.09924"
       inkscape:export-xdpi="162.48436"
       inkscape:export-ydpi="162.48436" />
    <path
       inkscape:connector-curvature="0"
       id="path11738"
       style="font-style:normal;font-variant:normal;font-weight:bold;font-stretch:normal;font-size:68.61177063px;line-height:1.25;font-family:'Inknut Antiqua';-inkscape-font-specification:'Inknut Antiqua Bold';letter-spacing:0px;word-spacing:0px;fill:#550000;fill-opacity:1;stroke:none;stroke-width:1.83781528"
       d="m -15.875803,159.64718 c 3.308377,2.44165 5.166953,2.74972 7.1238962,4.38037 1.8679,1.39562 3.788818,3.83683 5.508321,6.15025 1.41183,2.16372 1.763749,2.58074 1.776973,5.27766 -0.318172,2.14735 -0.159369,4.77626 -3.203773,7.81578 -1.588934,2.88148 -4.995159,6.92386 -8.2102802,8.17195 -3.145031,1.42879 -7.192918,3.00267 -9.364393,3.5095 -4.616622,0.17718 -9.607264,-1.80798 -12.655738,-3.06801 -4.150103,-0.69468 -5.475004,-4.16745 -8.091384,-6.17643 -1.657022,-1.97438 -4.059023,-5.0217 -3.38142,-8.05419 0.248933,-3.07209 1.276964,-5.31658 3.389646,-7.03467 2.858172,-1.59692 5.224174,-4.07246 9.88746,-7.66075 -3.0803,-2.77457 -4.412845,-5.07609 -6.313151,-7.29887 -2.523255,-2.45281 -2.674244,-2.71882 -2.640079,-6.16604 0.247439,-2.70183 0.510686,-3.94185 3.454027,-7.08406 2.076358,-2.03024 3.942199,-5.47361 7.149187,-6.52312 3.320352,-2.43452 5.691408,-2.53804 8.253111,-2.24537 2.726804,0.79321 7.113342,-0.83714 9.133782,0.69107 3.417038,1.12411 4.026789,3.07975 5.9908782,4.22866 1.777834,2.08939 2.326942,4.90244 2.027447,7.14172 -0.62598,1.54471 -1.31659,3.40938 -2.248667,5.53465 -1.8716282,1.84093 -5.0175512,6.28189 -8.1742072,9.34212 -0.09583,-0.72333 -0.524799,-0.91352 0.21237,-1.14732 m -7.66182,-20.59411 c -2.573721,0.51351 -2.329918,2.29131 -3.731794,2.80466 -1.511599,1.79622 -3.48379,2.03788 -2.777085,4.4154 0.214762,1.64935 1.116478,4.1222 3.098384,5.34567 2.475519,1.47583 4.134496,4.57567 6.769256,6.26561 1.806422,-2.78722 1.792579,-4.3976 2.342293,-4.8605 -0.09767,-1.14729 1.01527,-3.49698 1.782855,-4.64593 -0.301149,-2.04251 -1.208011,-3.72115 -1.729319,-5.41463 -1.539584,-1.65994 -2.539955,-2.66475 -4.988407,-3.42365 0.726126,-0.10066 -0.727895,-0.23528 -1.278498,-0.32818 m 2.632273,48.02851 c 2.86157,-0.43159 5.31191,-0.46702 6.331398,-2.28111 2.192591,-1.31547 0.29011,-2.9562 0.930748,-5.84795 -0.39411,-1.47155 1.143463,-2.96216 -0.483653,-3.92472 -1.519317,-1.35282 -3.73774,-2.34236 -5.017511,-3.93916 -1.701961,-0.85613 -5.140875,-2.48029 -7.547271,-4.92416 0.09312,-0.30367 -0.602009,0.12567 -0.710036,-0.66895 -2.05604,2.39178 -3.363047,2.64778 -4.357505,4.32987 -1.120386,0.65054 -1.430737,4.48667 -1.223629,5.41165 -0.524584,1.75707 -0.09606,3.43885 1.72021,5.42872 1.420614,1.4679 3.085909,3.46453 4.685564,4.70055 2.400419,1.91082 3.572968,3.11699 5.632797,3.00488 0.598958,0.77645 -0.668986,-0.96308 0.04097,-1.15269"
       inkscape:export-xdpi="162.48436"
       inkscape:export-ydpi="162.48436" />
    <path
       inkscape:connector-curvature="0"
       id="path11740"
       style="font-style:normal;font-variant:normal;font-weight:bold;font-stretch:normal;font-size:68.61177063px;line-height:1.25;font-family:'Inknut Antiqua';-inkscape-font-specification:'Inknut Antiqua Bold';letter-spacing:0px;word-spacing:0px;fill:#550000;fill-opacity:1;stroke:none;stroke-width:1.83781528"
       d="m 35.593257,138.30002 c 5.86509,-0.13545 9.57998,1.75276 13.86855,3.71716 3.68813,2.04159 6.81869,6.24899 8.84272,9.85105 2.13304,3.35091 4.37221,8.49206 3.77503,13.83794 0.68168,5.88504 -1.95424,9.27366 -5.6535,13.39133 -3.86347,3.66643 -7.05606,8.1342 -12.26689,10.5753 -4.79678,2.06894 -8.08037,4.93543 -12.95474,4.34692 -2.61868,0.3649 -4.97559,0.11757 -6.69028,0.27266 -3.29467,0.35385 -6.391613,-1.49205 -8.418128,-0.76723 0.699106,-0.78444 -10.6345778,0.28375 -10.5614448,0.22064 -0.357637,0.4686 0.43973,-3.63011 -0.151728,-3.45853 0.614059,0.0594 7.7217408,-5.83041 7.5963388,-6.14097 -0.139819,0.36506 -1.630138,-37.77142 -1.084183,-38.52519 -0.0715,0.79504 -7.8153918,-1.89107 -7.2283008,-1.38491 -0.184247,-0.73041 0.861955,-5.667 1.575962,-4.90691 0.370599,-0.0635 9.9876848,-0.26884 10.4973748,0.37341 4.976329,-0.52202 6.689799,-0.24058 11.502789,-0.43721 3.22017,-0.50361 6.47191,-1.15564 7.04897,-0.9941 0.61417,-0.0131 1.74031,-0.31959 1.08292,0.087 m -3.08043,48.68016 c 2.3114,0.79881 5.58635,0.52988 7.42913,-0.94026 2.6923,-1.51458 4.46459,-4.32432 5.11386,-6.96238 0.76469,-2.92101 3.72575,-7.11781 3.11288,-10.5574 -0.0387,-4.31251 -0.55833,-7.71116 -2.05293,-11.84551 -1.80176,-4.22304 -3.64364,-6.52272 -7.0676,-8.18081 -2.67783,-1.35328 -5.60427,-4.05515 -9.17515,-4.02692 -1.9276,0.62656 -3.57407,0.78375 -5.58476,2.05284 -0.74524,-0.14779 -0.90678,39.97135 -0.13663,40.14819 2.53995,0.94301 5.14632,1.82216 8.07922,1.74629 0.30572,-0.0733 -0.2704,0.0776 -0.19433,-0.17096"
       inkscape:export-xdpi="162.48436"
       inkscape:export-ydpi="162.48436" />
    <path
       inkscape:connector-curvature="0"
       id="path11742"
       style="font-style:normal;font-variant:normal;font-weight:bold;font-stretch:normal;font-size:68.61177063px;line-height:1.25;font-family:'Inknut Antiqua';-inkscape-font-specification:'Inknut Antiqua Bold';letter-spacing:0px;word-spacing:0px;fill:#550000;fill-opacity:1;stroke:none;stroke-width:1.83781528"
       d="m 91.698927,165.41507 c -1.48914,0.62801 -3.98029,0.79029 -5.21638,2.59148 0.49552,0.3396 -1.19122,18.31825 -0.40534,17.96552 -0.61444,0.63561 10.35132,3.61224 10.01684,3.58461 0.19627,-0.01 -1.25121,3.2834 -1.10485,3.74155 -0.62922,0.30522 -27.74493,-0.82336 -27.16855,-0.55612 -0.23541,-0.21419 0.43241,-3.64395 0.16108,-3.3266 0.34524,-0.53087 7.54425,-5.46265 7.0857,-5.67716 0.36072,0.48851 -0.0901,-15.86469 -0.57865,-15.31529 -0.43804,0.19426 -6.29138,-3.02866 -6.47122,-2.72149 -0.0493,-0.47439 0.79582,-3.4769 0.80831,-4.21707 -0.38717,0.41807 14.63073,-7.52809 14.50107,-6.792 -0.0857,0.46937 1.0615,8.01994 1.78603,8.69134 -0.65815,-0.013 6.89931,-6.97516 7.09745,-6.69061 1.31208,-0.62428 1.77778,-1.57394 2.36775,-1.11146 1.75712,-0.48236 4.57476,0.3902 6.784703,1.66939 2.50308,1.72209 2.68461,3.08227 4.11351,4.73369 0.0768,0.61115 -6.690223,7.89546 -6.592923,7.90172 0.61245,-0.51359 -5.82848,0.26313 -5.62566,-0.30334 0.46566,-1.67443 1.40131,-1.50641 0.2275,-2.04273 -0.42873,-1.13268 -1.28342,-1.63447 -2.39672,-1.94816 -0.5836,0.31127 0.98399,0.26801 0.75919,0.13496"
       inkscape:export-xdpi="162.48436"
       inkscape:export-ydpi="162.48436" />
    <path
       inkscape:connector-curvature="0"
       id="path11744"
       style="font-style:normal;font-variant:normal;font-weight:bold;font-stretch:normal;font-size:68.61177063px;line-height:1.25;font-family:'Inknut Antiqua';-inkscape-font-specification:'Inknut Antiqua Bold';letter-spacing:0px;word-spacing:0px;fill:#550000;fill-opacity:1;stroke:none;stroke-width:1.83781528"
       d="m 145.2561,194.04212 c -0.17213,0.25298 -14.47779,0.72818 -14.93234,0.14896 0.0582,0.70442 0.17048,-6.10576 -0.33498,-6.10834 0.31539,-0.25596 -6.88244,6.7004 -7.06918,6.01102 -1.29908,-0.13692 -2.89906,1.09164 -3.70945,0.72803 -3.68178,-0.30423 -7.94515,-1.27683 -10.11225,-3.56915 -2.10093,-1.41293 -2.15542,-4.65534 -2.44324,-7.9803 -0.2635,-2.50281 -0.41062,-4.3591 1.3402,-6.03561 0.99174,-1.36279 2.49971,-3.58605 5.19726,-4.4525 -0.26233,-0.74048 17.86308,0.10676 17.07426,0.27681 -0.53025,-0.58008 -1.18771,-1.47992 -0.64599,-1.13334 0.48033,-2.44655 -0.50631,-4.41403 -1.75829,-4.89491 -1.52868,-1.14173 -3.17439,-2.36159 -5.00992,-2.09679 -3.13352,0.22582 -6.38783,1.8584 -12.3486,3.85564 -0.0869,0.36287 -1.02987,-3.5005 -1.73579,-4.23208 0.76361,0.22404 8.7895,-8.28259 9.4221,-8.3977 1.84202,-0.15006 3.34868,0.23152 6.89032,0.45694 4.96914,0.0545 8.47146,0.24413 11.94983,2.12788 3.23622,2.72341 4.99413,5.99583 5.49853,10.39362 0.096,-0.78025 -1.32416,18.30933 -1.12342,17.63137 0.47747,0.0944 6.05732,2.64882 6.01141,2.36386 -0.22862,0.047 -1.30494,4.94565 -0.98413,4.14587 m -23.23226,-7.67048 c 2.29579,-0.58105 5.32045,-0.6875 7.63998,-3.1503 0.41745,0.0311 -0.33582,-4.86503 -1.02149,-4.50773 0.19866,0.0655 -11.43666,0.75448 -11.32559,0.0852 -0.28948,0.59298 0.17621,0.73119 0.56258,0.55558 -0.0345,0.0838 -0.16653,0.75306 -0.77363,1.64609 0.74058,0.74765 0.96464,1.29711 1.29945,2.83656 1.37079,0.17829 1.87647,1.80307 3.67882,1.79387 -0.51696,-0.31839 -0.24967,0.86361 -0.0352,0.3084"
       inkscape:export-xdpi="162.48436"
       inkscape:export-ydpi="162.48436" />
    <path
       inkscape:connector-curvature="0"
       id="path11746"
       style="font-style:normal;font-variant:normal;font-weight:bold;font-stretch:normal;font-size:68.61177063px;line-height:1.25;font-family:'Inknut Antiqua';-inkscape-font-specification:'Inknut Antiqua Bold';letter-spacing:0px;word-spacing:0px;fill:#550000;fill-opacity:1;stroke:none;stroke-width:1.83781528"
       d="m 174.06856,156.54329 c 1.6298,-0.41976 5.48834,-0.19458 7.56668,0.13043 2.35107,-0.0742 4.16241,1.19735 5.83881,1.78902 0.6603,0.0854 -0.0875,11.68606 -0.5303,12.15568 0.7312,-0.57796 -4.32952,1.05347 -3.60929,1.04844 -1.02587,-3.03372 -3.87386,-4.31021 -6.07393,-6.33774 -2.59786,-1.08441 -4.08767,-0.84026 -6.70834,-1.24037 -1.33941,-0.1661 -2.94623,-0.33136 -4.42888,1.38865 -1.20825,1.51243 -1.15075,4.52651 -1.85091,7.2004 0.34021,3.21623 0.85167,5.92553 2.90955,9.01515 1.48544,2.0592 3.44283,4.00734 7.04577,4.10121 3.50326,-0.42627 6.89749,-0.51564 13.00715,-3.96524 0.0521,-0.71923 2.11153,4.14964 1.90058,3.60638 -0.1366,0.12305 -9.94411,7.23684 -9.89183,7.19924 -3.18533,1.22249 -7.04375,0.99004 -9.85453,1.49573 -3.65189,0.36406 -5.67847,-0.79165 -8.92747,-1.90962 -2.9605,-1.85213 -4.15739,-3.99933 -5.806,-7.12594 -1.62088,-2.97209 -2.52349,-4.29142 -2.63156,-8.233 -0.64239,-3.06507 2.61516,-7.69733 4.39262,-10.01633 2.74665,-3.91119 4.52891,-5.72777 7.12458,-7.40831 3.89641,-1.59131 7.12089,-3.4513 10.23084,-2.83023 -0.21287,-0.0346 -1.25556,-0.78294 -0.87969,-0.43351"
       inkscape:export-xdpi="162.48436"
       inkscape:export-ydpi="162.48436" />
    <path
       inkscape:connector-curvature="0"
       id="path11748"
       style="font-style:normal;font-variant:normal;font-weight:bold;font-stretch:normal;font-size:68.61177063px;line-height:1.25;font-family:'Inknut Antiqua';-inkscape-font-specification:'Inknut Antiqua Bold';letter-spacing:0px;word-spacing:0px;fill:#550000;fill-opacity:1;stroke:none;stroke-width:1.83781528"
       d="m 237.76039,193.04804 c -0.74628,-0.10285 -15.11403,0.97724 -15.67209,0.97739 0.34729,-0.33708 1.12797,-6.158 1.10241,-6.06268 -0.0326,-0.41928 -8.69452,5.84976 -8.1281,5.8506 -0.80563,0.22077 -3.02726,0.65345 -4.31991,0.64303 -3.41463,-0.66391 -6.48576,-1.31153 -8.4664,-2.70386 -1.49781,-1.95553 -2.78109,-6.06275 -2.28103,-8.53998 -0.12731,-0.68429 -1.41237,-13.85621 -0.83671,-13.84882 -0.26448,-0.31375 -6.51259,-4.12736 -5.74932,-4.36737 0.1356,-0.48321 0.2894,-3.78315 -0.49961,-3.89595 -0.65628,-0.2066 13.95759,-6.26951 13.8421,-5.78906 0.67013,-0.1038 5.50288,0.7472 5.27785,0.94135 0.39373,-0.53789 -0.55271,22.05384 -1.15038,21.89909 -0.22508,1.46014 1.57506,4.45915 1.58467,5.5803 0.75986,0.72491 2.03041,0.0769 3.34902,0.44415 3.0408,0.63255 5.53656,-1.31113 7.64058,-2.85385 0.16603,0.67744 -0.82344,-11.75585 -0.6136,-12.46475 0.0111,0.25895 -5.44218,-3.70854 -5.55881,-3.67425 -0.0669,0.63991 0.18169,-4.08636 -0.19791,-4.28095 -0.19222,-0.67403 13.12839,-5.19275 13.57966,-4.56032 -0.41529,0.24003 2.53503,-0.97365 3.27483,-0.29325 -0.77523,0.68731 -0.73316,31.69936 0.0233,31.16805 0.60291,-0.12373 5.62224,1.17678 5.92437,1.64558 0.34454,0.71714 -1.69998,3.59863 -1.19661,3.93829"
       inkscape:export-xdpi="162.48436"
       inkscape:export-ydpi="162.48436" />
    <path
       inkscape:connector-curvature="0"
       id="path11750"
       style="font-style:normal;font-variant:normal;font-weight:bold;font-stretch:normal;font-size:68.61177063px;line-height:1.25;font-family:'Inknut Antiqua';-inkscape-font-specification:'Inknut Antiqua Bold';letter-spacing:0px;word-spacing:0px;fill:#550000;fill-opacity:1;stroke:none;stroke-width:1.83781528"
       d="m 264.49172,193.72109 c 0,-0.0738 -20.96021,-0.37862 -21.64591,-0.10227 -0.23227,-0.43175 0.517,-3.47416 1.14597,-4.00581 -0.6037,-0.006 6.61432,-6.38021 6.17132,-5.60223 0.0394,0.3191 -1.64798,-37.6531 -1.22047,-37.76464 0.57455,-0.7042 -4.74292,-2.38829 -5.47915,-2.96517 -0.0769,0.79453 0.0793,-4.7489 -0.32004,-4.95803 0.1419,0.24701 12.92302,-5.05756 13.66526,-4.3449 -0.15381,0.16428 4.94972,-0.33023 4.58441,-1.04631 0.48016,-0.2953 -0.0778,55.20422 -0.67586,54.67492 0.2793,0.10326 7.14746,1.53512 7.25414,0.85508 -0.1292,0.031 -3.39402,5.15702 -3.31335,4.92358"
       inkscape:export-xdpi="162.48436"
       inkscape:export-ydpi="162.48436" />
    <path
       inkscape:connector-curvature="0"
       id="path11752"
       style="font-style:normal;font-variant:normal;font-weight:bold;font-stretch:normal;font-size:68.61177063px;line-height:1.25;font-family:'Inknut Antiqua';-inkscape-font-specification:'Inknut Antiqua Bold';letter-spacing:0px;word-spacing:0px;fill:#550000;fill-opacity:1;stroke:none;stroke-width:1.83781528"
       d="m 310.86839,193.56168 c 0.38182,-0.62821 -14.84807,-1.51857 -15.37981,-0.83899 0.77399,0.73365 -1.43666,-5.67945 -0.91291,-5.66033 -0.17751,-0.12772 -6.47436,6.93633 -6.31429,6.44655 -1.24632,0.77726 -2.83662,0.92216 -4.8546,1.05427 -3.95483,-0.52123 -5.69505,-1.19881 -8.06574,-3.36338 -2.53352,-2.08136 -2.3876,-5.68176 -3.02697,-8.22275 -0.18687,-2.40069 -0.72503,-3.06424 0.85564,-4.93591 0.75523,-1.88521 1.72961,-3.50393 4.56176,-4.20125 -0.30512,0.1632 17.73933,-1.05458 17.88594,-1.10956 -0.71451,-0.77317 -0.48517,-0.76034 -0.22119,-0.42517 -0.7438,-2.31836 -0.25495,-5.30519 -1.41338,-6.60277 -0.68998,-1.78473 -3.95938,-1.41101 -6.71327,-0.74004 -3.73386,-0.56016 -7.57989,1.20032 -12.14477,4.08948 0.17197,0.52697 -2.25791,-4.34387 -2.40284,-4.68246 -0.41876,0.63436 10.19743,-7.51314 9.98696,-8.10561 2.61593,0.11262 4.78713,1.05408 8.01915,0.33576 4.67569,-0.0929 8.74945,-0.1448 12.0908,2.72376 3.51776,2.88432 5.51479,5.83807 4.72127,10.65026 -0.11088,0.27126 -0.8328,16.76422 -1.37091,15.96859 -0.0748,0.74365 6.29841,3.98637 6.71002,3.26097 0.78769,-0.70433 -1.42174,3.03733 -1.42864,3.79226 m -24.07063,-7.892 c 2.85583,0.69093 4.60452,-1.94531 7.50678,-3.12352 -0.71442,0.64583 1.39489,-4.56792 0.78611,-4.86634 0.64907,0.1633 -12.64955,1.91093 -12.12771,1.31307 -0.0836,0.56499 -0.45154,1.75747 -0.77332,1.54679 -0.3651,-0.0191 0.88971,0.83436 0.22473,0.93791 -0.17475,0.52921 1.23852,2.30841 1.52194,2.30019 0.40412,1.44822 0.43217,1.7539 2.47153,1.33759 -0.48255,0.60706 1.74117,-0.32877 0.97485,-0.10583"
       inkscape:export-xdpi="162.48436"
       inkscape:export-ydpi="162.48436" />
    <path
       inkscape:connector-curvature="0"
       id="path11754"
       style="font-style:normal;font-variant:normal;font-weight:500;font-stretch:normal;font-size:16.39614105px;line-height:1.25;font-family:'Inknut Antiqua';-inkscape-font-specification:'Inknut Antiqua Medium';text-align:center;letter-spacing:0px;word-spacing:0px;text-anchor:middle;fill:#2b0000;fill-opacity:1;stroke:none;stroke-width:0.43918234"
       d="m 55.077877,212.78046 c -0.0641,-0.42042 -0.18182,1.01755 -0.84806,1.09327 0.14894,0.45286 -2.16445,-3.61829 -2.08215,-3.02517 0.56184,0.13186 -1.73185,-1.10086 -1.71356,-0.3608 -0.77204,-0.38032 -0.96599,11.25831 -0.94463,10.50617 0.54326,-0.1577 0.69215,1.58948 1.2934,1.34407 -0.63446,0.0429 -0.65934,0.25529 0.0855,0.2017 -0.6938,-0.16662 -5.00326,-0.74572 -5.06537,-0.27267 -0.67316,0.44168 0.0768,-0.0139 -0.39182,-0.15562 0.59065,0.67062 2.31221,-1.84741 2.15346,-1.37975 -0.71102,-0.77642 -0.17998,-10.12107 0.4559,-10.59548 0.33807,0.51642 -1.98567,0.92399 -2.02378,0.81895 -0.13816,0.39597 -2.68309,3.74006 -2.89585,3.3114 0.60324,0.152 1.27555,-0.3456 0.50939,-0.85522 0.0267,-0.78692 -0.51565,-4.62149 -0.58984,-4.49725 -0.44284,-0.63443 0.86193,0.14602 0.80403,-0.15756 0.13792,-0.52439 9.38052,0.24778 9.25767,0.40744 0.52315,-0.23335 1.68883,-0.13764 1.99037,0.56112 0.37535,-0.67076 -0.31271,2.67207 -0.39999,3.04709"
       inkscape:export-xdpi="162.48436"
       inkscape:export-ydpi="162.48436" />
    <path
       inkscape:connector-curvature="0"
       id="path11756"
       style="font-style:normal;font-variant:normal;font-weight:500;font-stretch:normal;font-size:16.39614105px;line-height:1.25;font-family:'Inknut Antiqua';-inkscape-font-specification:'Inknut Antiqua Medium';text-align:center;letter-spacing:0px;word-spacing:0px;text-anchor:middle;fill:#2b0000;fill-opacity:1;stroke:none;stroke-width:0.43918234"
       d="m 66.913247,222.55016 c 0.38553,0.747 -4.50897,0.3241 -3.84439,0.45195 -0.49445,0.64853 0.12291,-6.07521 -0.0259,-6.51093 -0.39683,-0.46026 0.12782,-0.0886 0.31825,-0.69376 -0.12399,-0.36273 -2.06774,-0.65932 -2.00406,-1.17027 -0.41803,0.40813 0.48186,1.13725 -0.37242,1.51536 0.15113,0.64165 -1.13548,-0.2471 -1.41028,-0.62563 0.2915,-0.60094 -0.18743,5.51525 0.5375,5.07147 -0.69368,0.17771 1.58364,0.91018 1.59292,0.48049 0.78789,-0.48392 -0.12592,0.63684 -0.35079,1.04904 -0.65535,-0.22338 -4.24822,-0.18282 -4.77218,-0.32206 -0.49624,0.29606 -0.24576,0.47786 0.35164,0.42946 0.40671,0.71397 1.04218,-1.69962 1.36179,-1.4239 0.66306,0.55968 0.39884,-9.3232 -0.36993,-9.86696 0.65152,-0.79776 -1.18631,-1.86029 -1.79858,-1.26795 0.11295,-0.44856 -0.92528,-0.82223 -0.58069,-0.8167 -0.094,-0.55109 3.49219,-0.43714 3.7257,-0.22472 0.10852,-0.60116 -0.70628,-1.68028 -0.23867,-1.34047 0.25632,-0.2254 0.51182,7.67357 0.36331,7.16353 0.26848,0.52026 2.07609,0.65841 2.10026,-0.13651 0.41079,-0.8157 0.83944,-1.45012 0.82739,-1.3322 1.34661,0.77442 1.9601,0.89645 2.55325,1.53638 0.30824,1.10278 0.44588,1.8874 0.34791,1.89147 0.20837,-0.22194 0.80063,3.0874 0.62727,3.87575 -0.46002,-0.65204 0.74143,1.25739 1.30109,1.33798 -0.66569,0.49941 0.23238,1.0234 0.0116,0.79643"
       inkscape:export-xdpi="162.48436"
       inkscape:export-ydpi="162.48436" />
    <path
       inkscape:connector-curvature="0"
       id="path11758"
       style="font-style:normal;font-variant:normal;font-weight:500;font-stretch:normal;font-size:16.39614105px;line-height:1.25;font-family:'Inknut Antiqua';-inkscape-font-specification:'Inknut Antiqua Medium';text-align:center;letter-spacing:0px;word-spacing:0px;text-anchor:middle;fill:#2b0000;fill-opacity:1;stroke:none;stroke-width:0.43918234"
       d="m 74.165147,221.59707 c -0.43897,0.25943 -0.8208,0.57564 -1.76083,0.84998 -0.53043,-0.0817 -1.46509,-0.82229 -2.6261,-0.62003 -0.22886,-0.049 -0.68694,-0.71691 -1.51705,-1.69888 -0.84246,-1.33268 -0.42362,-0.63689 -0.2692,-2.08381 0.69945,-0.18861 -0.2266,-0.54183 0.92898,-1.79208 0.58047,-0.36977 1.487,-2.41455 2.62725,-2.78154 0.174,-0.87595 1.44071,-0.59676 1.91524,-0.003 1.07915,-0.2797 2.75891,-0.61375 2.94152,0.95748 0.74819,1.4463 1.11272,1.75063 0.36978,3.59642 0.17215,-0.6893 -6.37561,0.57448 -5.78123,0.0922 0.37085,0.30876 0.32292,1.1828 0.65371,1.53943 0.9961,0.35261 -0.059,0.19955 0.73976,0.51534 0.0192,-0.0673 1.45714,0.11958 2.99304,-1.4766 -0.38308,-0.60153 1.46537,1.28604 1.27309,1.06515 0.5584,-0.58391 -1.74973,2.4126 -2.33648,2.97714 m -2.58792,-8.11466 c -0.4774,-0.38958 -1.88625,1.49216 -1.73807,2.34179 -0.26401,-0.60077 4.21261,0.97064 4.13619,0.41247 -0.45057,-1.22981 -0.34877,-0.56023 -0.42829,-1.1025 0.46196,0.14094 1.40282,0.30516 0.38048,-0.32366 -0.56779,-0.58619 -1.55161,-0.002 -1.48817,-0.59244 -0.56547,-0.40684 -0.98546,-0.73263 -0.43118,-0.74187"
       inkscape:export-xdpi="162.48436"
       inkscape:export-ydpi="162.48436" />
    <path
       inkscape:connector-curvature="0"
       id="path11760"
       style="font-style:normal;font-variant:normal;font-weight:500;font-stretch:normal;font-size:16.39614105px;line-height:1.25;font-family:'Inknut Antiqua';-inkscape-font-specification:'Inknut Antiqua Medium';text-align:center;letter-spacing:0px;word-spacing:0px;text-anchor:middle;fill:#2b0000;fill-opacity:1;stroke:none;stroke-width:0.43918234"
       d="m 89.369047,208.13437 c -0.1751,0.18086 1.1596,0.94759 0.95764,0.43572 1.06825,0.68103 0.0725,0.22498 0.11687,0.11515 -0.65454,-0.66427 -0.18645,1.23195 0.59726,1.8438 0.44145,-0.68871 0.0651,1.24704 -0.26268,0.60647 -0.70184,-0.74255 -1.78036,-0.65927 -1.46092,-1.53903 -0.91572,-0.10133 -0.52913,-0.28579 -0.75254,0.0668 -0.5493,0.36513 -0.25227,0.35682 -0.8947,0.21959 -0.21555,0.55174 -1.24582,0.15263 -0.62725,1.40751 -0.60789,0.67874 -0.24416,10.06175 -0.62002,10.06828 -0.34306,-0.18078 1.42944,-0.40223 1.92096,-0.0979 0.7233,-0.66771 -0.60815,0.65137 0.0507,0.35484 -0.34618,-0.25903 -4.23269,0.35264 -4.68657,0.28219 0.69429,-0.74388 0.49789,-0.33934 -0.22792,-0.30909 0.0247,-0.59957 -0.15593,-0.81368 0.51865,-1.15436 -0.76231,0.77785 0.20737,-6.03969 0.3031,-5.452 0.69256,-0.005 -1.81247,-0.77524 -1.90957,-0.18919 -0.21981,0.48732 1.03266,-1.09426 0.66873,-0.9711 0.74048,-0.77287 0.89765,-0.0931 1.04249,0.27941 0.77655,0.68039 0.56887,-2.15895 0.51029,-1.80118 0.76012,-0.62774 1.39991,-2.06738 1.2405,-2.66502 0.74012,-0.26845 0.94782,-1.59497 1.26541,-1.42522 1.19105,-0.91143 0.62523,-1.43532 1.84618,-1.15345 -0.70814,-0.77034 -1.07521,0.65732 -0.49848,1.29617"
       inkscape:export-xdpi="162.48436"
       inkscape:export-ydpi="162.48436" />
    <path
       inkscape:connector-curvature="0"
       id="path11762"
       style="font-style:normal;font-variant:normal;font-weight:500;font-stretch:normal;font-size:16.39614105px;line-height:1.25;font-family:'Inknut Antiqua';-inkscape-font-specification:'Inknut Antiqua Medium';text-align:center;letter-spacing:0px;word-spacing:0px;text-anchor:middle;fill:#2b0000;fill-opacity:1;stroke:none;stroke-width:0.43918234"
       d="m 95.593607,222.80814 c -0.49458,0.12987 -1.36866,-0.11126 -1.66163,-0.2621 0.20825,-0.43227 -1.30594,1.97125 -0.56316,2.04908 -0.57774,-0.77874 3.16269,0.91875 3.67169,1.06563 0.76137,-0.63633 -1.52097,0.27162 -1.77274,0.0595 0.18614,0.67863 -3.79684,1.09819 -4.39754,0.30726 -0.37364,0.53506 -0.93344,0.57032 -0.76083,-0.0797 0.1817,-0.2633 2.65133,-2.70694 2.09258,-1.91885 -0.69483,-0.58505 0.23147,-6.50617 0.47876,-7.18077 0.56026,-0.17148 -1.93624,-1.87175 -1.93068,-1.12052 0.20403,0.36155 -0.88025,-0.36076 -0.32807,-0.48152 -0.55318,0.0546 2.13134,-2.42675 2.42706,-2.07952 -0.61054,-0.42797 1.05851,2.55935 1.62458,2.89877 -0.57224,-0.79324 1.03811,-2.55669 1.18386,-3.16557 0.22381,-0.41199 2.04339,0.29316 1.79205,0.16127 0.46024,-0.42121 0.83282,0.0487 1.15425,0.87426 -0.0403,0.90171 0.54135,0.24522 1.26116,0.7805 0.337333,1.38925 -0.11286,1.93474 0.051,2.127 -0.29819,0.48586 0.0556,2.60552 -0.75383,3.58525 0.0928,1.43291 -0.13561,1.16653 -1.59823,1.30768 -1.0072,0.42173 -0.86631,0.1198 -1.98056,0.81119 0.66526,0.62756 -0.40768,1.13495 0.14014,0.56059 m 1.10606,-8.72057 c -0.49633,0.57021 -0.23671,0.78583 -1.10686,1.38345 -0.45322,-0.0404 -1.6128,-0.3972 -1.35374,0.70631 0.48048,0.0112 -0.62986,3.00496 0.0138,2.43795 -0.10074,0.74357 0.46918,1.63296 0.60215,2.26884 -0.0162,0.0911 0.91141,0.0899 1.92183,0.22652 0.39936,0.62001 1.70607,-0.91925 1.7071,-1.75098 0.1551,0.0676 0.22323,0.16064 0.0333,-1.26602 -0.0439,-0.97009 -0.98955,-1.30567 -0.61472,-1.71432 -0.20958,0.12693 0.36119,-1.6483 -0.73661,-0.92761 0.44405,0.66417 -0.45257,0.41011 -0.0173,-0.3764"
       inkscape:export-xdpi="162.48436"
       inkscape:export-ydpi="162.48436" />
    <path
       inkscape:connector-curvature="0"
       id="path11764"
       style="font-style:normal;font-variant:normal;font-weight:500;font-stretch:normal;font-size:16.39614105px;line-height:1.25;font-family:'Inknut Antiqua';-inkscape-font-specification:'Inknut Antiqua Medium';text-align:center;letter-spacing:0px;word-spacing:0px;text-anchor:middle;fill:#2b0000;fill-opacity:1;stroke:none;stroke-width:0.43918234"
       d="m 107.37562,212.67546 c 0.38426,0.004 1.98441,0.53655 2.19353,1.55549 0.62049,1.05411 1.3194,-0.6104 2.40416,0.53284 -0.23702,0.224 -0.91726,2.47865 -0.3802,3.41676 0.30256,0.63067 -0.16199,2.53451 -1.0128,2.58011 0.21874,1.37322 -2.05306,1.18291 -2.43335,1.73563 -1.25428,0.39361 -1.25928,0.0445 -1.97986,-0.003 -1.36025,0.29371 -1.04605,-0.14417 -1.78814,-0.0891 0.0452,-0.3782 -1.28686,-0.90172 -1.25519,-2.16987 0.013,-1.34502 -0.37925,-0.39275 -0.81574,-1.68304 0.66722,-1.20714 0.60755,-1.72523 0.98736,-2.80484 0.97939,-0.30085 1.45095,-0.35583 1.54235,-1.2527 0.25468,-0.81202 2.73192,0.19111 2.87401,-0.49344 0.71513,-0.64707 0.80773,-1.01847 0.21759,-1.06287 m -1.66298,1.38932 c -1.08116,0.23623 -0.629,0.75287 -1.13178,2.90525 0.48892,0.2331 0.80485,2.92684 0.81957,3.53363 1.15657,0.13066 2.2146,0.40651 2.37936,-0.25029 1.21053,0.003 -1.00669,1.4297 -0.17137,0.44949 -0.15096,-0.98055 1.43911,-2.20973 0.6929,-2.81801 -0.62135,-1.11571 0.21365,-1.85956 0.15701,-2.70001 -0.67959,-0.0478 -1.0606,-0.89632 -2.40408,-0.91045 -0.55264,0.43568 0.36399,0.0787 0.84503,0.0412"
       inkscape:export-xdpi="162.48436"
       inkscape:export-ydpi="162.48436" />
    <path
       inkscape:connector-curvature="0"
       id="path11766"
       style="font-style:normal;font-variant:normal;font-weight:500;font-stretch:normal;font-size:16.39614105px;line-height:1.25;font-family:'Inknut Antiqua';-inkscape-font-specification:'Inknut Antiqua Medium';text-align:center;letter-spacing:0px;word-spacing:0px;text-anchor:middle;fill:#2b0000;fill-opacity:1;stroke:none;stroke-width:0.43918234"
       d="m 118.27063,214.08407 c 0.61735,0.48918 2.38972,-0.47925 2.36483,-0.79057 0.1558,1.15239 0.71634,2.53483 1.2255,2.94437 0.01,0.23068 0.11227,0.9909 0.81193,2.11022 -0.12648,0.41923 -0.11175,1.48278 -1.305,2.28807 -0.7984,1.50065 -0.0731,1.59828 -1.07522,1.74905 -0.47245,0.61594 -1.41915,0.48358 -2.38003,-0.25606 -1.14467,-0.34789 -2.69969,0.50194 -2.92005,0.22764 -0.94154,0.16258 -0.78691,-0.89008 -1.22006,-1.22695 0.0817,-0.41821 -0.72117,-3.26927 -0.60991,-3.43035 0.32214,-0.4314 0.13178,-1.1102 0.99114,-2.49885 1.20683,-1.33804 0.50124,0.0789 2.08605,-0.87796 0.0481,-1.10607 3.34473,-1.7916 3.31923,-1.08928 -0.18295,0.0595 -0.51059,1.49948 -0.19238,0.89373 m -0.71218,0.33304 c -1.95882,0.27603 -2.15781,1.3726 -2.35514,2.52522 0.50254,1.75668 1.24634,2.46522 1.00818,3.15602 0.55962,0.44378 -0.57312,1.50249 0.99986,0.77385 -0.17594,-0.67223 1.46173,-0.20956 1.64049,-1.16871 -0.30865,-1.1954 0.61248,-1.19846 0.71868,-1.98086 0.60991,-0.48254 -0.99684,-2.39088 -1.55761,-2.38729 0.0495,-0.41671 -0.36291,-1.86928 -1.10427,-1.22854 -0.46096,-0.0778 -0.83876,1.47681 -0.79751,1.19061"
       inkscape:export-xdpi="162.48436"
       inkscape:export-ydpi="162.48436" />
    <path
       inkscape:connector-curvature="0"
       id="path11768"
       style="font-style:normal;font-variant:normal;font-weight:500;font-stretch:normal;font-size:16.39614105px;line-height:1.25;font-family:'Inknut Antiqua';-inkscape-font-specification:'Inknut Antiqua Medium';text-align:center;letter-spacing:0px;word-spacing:0px;text-anchor:middle;fill:#2b0000;fill-opacity:1;stroke:none;stroke-width:0.43918234"
       d="m 130.03602,221.00345 c 0.47207,0.57356 -0.76066,1.57921 -1.34362,1.67874 0.20666,-0.56839 -3.35324,0.29419 -3.85655,0.23069 0.44088,-0.60464 -0.71913,-1.03767 -0.17929,-1.28276 0.72563,0.53796 0.0309,-1.75227 0.7429,-1.72331 0.006,-0.61713 0.8732,-8.85309 1.1853,-8.98148 0.2307,0.49075 -0.82922,-0.90157 -1.58488,-1.61182 0.0475,-0.77746 -2.08152,-0.22336 -1.403,-0.39358 0.54532,0.71576 4.39575,-0.84524 4.19715,-0.30515 0.75002,-0.46506 0.0402,-0.43346 -0.37076,-0.0754 -0.34634,-0.4852 0.79191,13.1888 1.18682,13.10938 -0.30373,0.27765 0.98483,-0.23417 0.4623,-0.51887 m 4.96556,1.10798 c 0.0836,0.54593 -1.91163,0.1089 -2.41994,0.55634 0.0856,-0.38277 -3.56629,-3.93282 -3.62064,-4.21742 -0.35104,0.0877 3.77214,-3.5396 4.04986,-3.19625 0.33576,0.43843 -0.99941,-1.70753 -1.17113,-1.39084 0.76263,-0.28194 -0.50516,-0.73282 -0.66855,-0.20415 0.2982,-0.32859 3.63963,-0.0988 3.99542,-0.6052 0.0226,-0.2427 1.10871,0.52402 1.18344,0.32876 -0.3534,0.18128 -4.93758,3.58928 -5.0121,3.35155 -0.51287,0.51781 3.44565,5.06564 3.50756,4.27504 -0.74501,0.50797 1.03826,0.40498 1.56897,-0.25279 -0.58022,0.74271 -0.8802,1.2989 -0.32171,1.12766"
       inkscape:export-xdpi="162.48436"
       inkscape:export-ydpi="162.48436" />
    <path
       inkscape:connector-curvature="0"
       id="path11770"
       style="font-style:normal;font-variant:normal;font-weight:500;font-stretch:normal;font-size:16.39614105px;line-height:1.25;font-family:'Inknut Antiqua';-inkscape-font-specification:'Inknut Antiqua Medium';text-align:center;letter-spacing:0px;word-spacing:0px;text-anchor:middle;fill:#2b0000;fill-opacity:1;stroke:none;stroke-width:0.43918234"
       d="m 144.79874,213.76955 c -0.4222,0.46526 -3.65584,8.09404 -3.53949,8.78948 0.031,-0.28227 -3.9653,3.84711 -4.35685,4.09666 0.59981,0.14662 0.0259,0.0362 -0.24178,-0.12717 0.48805,-0.49344 1.0313,-0.47966 1.47281,-1.4686 1.08349,-0.83812 1.10513,-0.8942 0.54013,-1.55915 -0.16928,-1.25844 0.65718,-1.85535 0.64993,-2.919 0.0662,-0.28725 -1.69487,-3.16841 -2.06472,-3.93897 0.0941,0.66091 -1.18181,-1.55153 -1.52713,-1.64726 0.70882,-0.0554 -1.40907,-0.86141 -1.14663,-0.5883 -0.70042,-0.1171 4.80238,-0.39355 4.40092,-1.09712 0.29381,-0.57819 0.48725,2.12096 0.61429,2.52816 0.48698,0.17592 1.14154,4.3215 1.18023,4.44938 -0.77774,-0.14592 2.18467,-4.60088 2.39312,-4.17987 0.57267,-0.14761 -1.56547,-1.88701 -2.08861,-1.32294 0.1593,0.71359 0.31332,-0.18161 0.57814,-0.6716 -0.30113,-0.69814 3.17291,-0.32637 3.9201,0.1107 0.0107,-0.2648 0.92806,0.61535 0.14368,0.22575"
       inkscape:export-xdpi="162.48436"
       inkscape:export-ydpi="162.48436" />
    <path
       inkscape:connector-curvature="0"
       id="path11772"
       style="font-style:normal;font-variant:normal;font-weight:500;font-stretch:normal;font-size:16.39614105px;line-height:1.25;font-family:'Inknut Antiqua';-inkscape-font-specification:'Inknut Antiqua Medium';text-align:center;letter-spacing:0px;word-spacing:0px;text-anchor:middle;fill:#2b0000;fill-opacity:1;stroke:none;stroke-width:0.43918234"
       d="m 157.35227,222.35247 c 0.76662,-0.40789 -6.02688,-0.12522 -5.87285,-0.24191 0.29473,-0.72471 0.018,-0.95161 0.34287,-0.77441 -0.61928,0.52443 0.14109,0.45443 0.87578,-0.25506 -0.66032,0.44455 -0.0791,-8.23807 0.49813,-7.60215 0.14128,0.4677 -1.36479,-0.87864 -1.13841,-0.57126 0.4995,-0.77988 -1.68828,1.31326 -0.92578,0.59409 -0.54702,-0.19247 6.20423,0.68408 6.46365,-8e-4 0.0802,-0.46841 -1.39004,0.88294 -0.63488,0.32428 0.49958,0.57327 -2.07175,0.0626 -2.06036,0.36451 0.21161,0.19346 -0.28399,5.7196 -0.16265,6.41473 -0.58745,-0.45816 1.32554,0.55202 1.93987,1.10456 -0.0282,0.5134 -0.30907,1.68841 -0.7302,1.16349"
       inkscape:export-xdpi="162.48436"
       inkscape:export-ydpi="162.48436" />
    <path
       inkscape:connector-curvature="0"
       id="path11774"
       style="font-style:normal;font-variant:normal;font-weight:500;font-stretch:normal;font-size:16.39614105px;line-height:1.25;font-family:'Inknut Antiqua';-inkscape-font-specification:'Inknut Antiqua Medium';text-align:center;letter-spacing:0px;word-spacing:0px;text-anchor:middle;fill:#2b0000;fill-opacity:1;stroke:none;stroke-width:0.43918234"
       d="m 166.16439,214.35028 c 0.56681,7.9e-4 1.18156,0.15166 1.1978,0.49319 0.48316,1.0912 1.20624,1.89027 1.13212,2.50694 -0.11112,0.58416 0.19709,0.22563 0.87303,0.4251 -0.75672,1.10807 0.32849,2.52389 -0.75901,2.5178 -0.41818,-0.009 -1.44147,0.75067 -1.85275,1.35149 -1.14267,0.49279 -2.90784,1.33219 -2.74292,0.73142 -1.71494,-0.49619 -2.63126,0.66859 -2.73389,-0.23985 -0.30536,-1.01652 -1.37611,-0.87844 -1.69423,-1.18131 -0.71429,-0.93548 -0.9579,-1.39899 -0.21203,-1.97165 -0.75793,0.053 1.00653,-2.21373 1.30002,-2.41169 0.33852,-0.65451 1.56659,-0.57226 2.48798,-1.54387 -0.77112,0.16317 -2.04371,0.0261 -2.04503,-1.14875 -0.36816,-0.18206 -0.86106,-2.02291 -1.24302,-1.95696 0.70524,-0.58499 0.96842,-0.96551 0.85826,-1.54435 0.23648,-1.06682 1.94274,-0.66594 2.71462,-1.56292 0.37698,0.0268 -0.0559,-1.06633 0.64785,-1.6321 0.46923,-0.40382 1.78368,1.45015 2.77821,1.21245 1.16392,-0.43447 -0.7273,0.15434 0.35112,0.26917 0.15488,1.05322 1.5684,1.99873 0.80886,1.8606 -0.66192,0.95579 -0.12575,0.51203 -0.91998,1.54033 -0.74761,0.58517 0.48171,1.63096 -0.6537,1.68031 -0.40467,-0.14158 0.024,0.55873 -0.48022,0.73439 m -1.90096,-5.32441 c -1.07568,-0.35539 -1.97426,-0.25828 -1.77659,7.9e-4 -0.16772,0.96944 0.62425,1.39853 0.0833,1.38768 0.64251,0.2134 -0.49766,0.77333 0.31614,1.09378 0.12415,0.0844 2.43613,2.59075 2.75772,2.89511 -0.11445,-0.38129 0.42246,-2.02714 0.068,-2.32966 -0.59718,-0.96049 1.43375,-0.39305 1.30896,-0.0235 0.76878,-1.2902 -0.76616,-1.60278 -1.25566,-2.13527 -0.83932,0.10971 -0.50046,-0.0912 -1.54571,-0.46872 0.44476,0.69727 0.38554,-0.25056 0.0519,-0.004 m 1.23328,11.10169 c 0.55359,0.21714 -0.22115,0.93833 0.88591,0.60659 0.14543,-0.49623 -0.0593,-1.20179 0.032,-1.6183 -0.0315,-0.008 0.77051,-0.44525 1.47004,-0.36443 0.15027,-0.68657 0.0997,-0.9077 -0.9521,-1.37406 -0.64859,0.0971 -1.79793,-1.40552 -1.72738,-1.6498 -0.26258,0.0118 -1.0682,-1.54956 -1.25158,-1.29069 0.63008,-0.41987 -0.11074,1.48257 0.15145,0.73426 -0.20464,-0.0837 -0.75585,0.69593 -1.05386,-0.11331 -0.085,0.36291 -0.87609,0.63062 -0.47352,1.74165 -0.4756,0.13103 -0.73089,0.10313 -1.15243,0.6542 0.68226,-0.0191 0.28002,1.90372 0.97594,1.75111 -0.059,0.82378 0.0453,1.0011 0.85236,1.70599 0.1678,0.55831 1.19706,-0.019 2.42844,-0.20217 -0.18827,0.30404 -1.28522,-0.11692 -0.78432,-0.0846"
       inkscape:export-xdpi="162.48436"
       inkscape:export-ydpi="162.48436" />
    <path
       inkscape:connector-curvature="0"
       id="path11776"
       style="font-style:normal;font-variant:normal;font-weight:500;font-stretch:normal;font-size:16.39614105px;line-height:1.25;font-family:'Inknut Antiqua';-inkscape-font-specification:'Inknut Antiqua Medium';text-align:center;letter-spacing:0px;word-spacing:0px;text-anchor:middle;fill:#2b0000;fill-opacity:1;stroke:none;stroke-width:0.43918234"
       d="m 183.5991,222.56452 c 0.11133,0.51432 -4.76552,0.14995 -4.35581,0.43365 -0.28811,0.6371 -1.04871,-0.9778 -0.8065,-0.96517 0.60229,-0.5643 1.59313,-1.83649 1.1656,-1.26119 0.55114,0.0214 -2.5647,-3.5651 -3.25922,-3.88778 -0.097,0.4733 -2.57361,2.71736 -2.2613,3.40496 0.29404,-0.4401 2.73716,2.22615 2.65991,1.57904 -0.73695,0.52524 -0.317,0.0446 -0.47825,0.2381 0.001,0.20051 -5.57741,0.57467 -6.11373,0.39995 0.75805,-0.28778 -0.14537,-0.58627 -0.0655,-0.57774 -0.6471,0.54029 1.996,-0.25277 2.59494,-0.89014 0.53203,0.047 3.24734,-5.44493 3.20523,-4.74766 0.78883,0.41132 -3.0515,-4.09104 -3.59821,-4.89087 0.2205,-0.64582 -2.3791,-0.46407 -1.76196,-0.90463 -0.77058,-0.62034 1.14993,0.35573 1.16762,-0.38736 0.26391,0.20776 5.1813,-0.46676 4.49771,-0.87436 0.44144,-0.58064 -0.41411,0.60865 -0.56022,1.02065 -0.26014,0.3603 -0.98313,1.06565 -1.41996,1.40046 0.61585,-0.0905 4.31642,3.88997 4.50477,3.70675 0.6758,-0.1607 2.3345,-4.58194 2.62343,-3.96438 -0.53417,-0.0391 -2.32023,-0.65238 -2.9885,-0.76702 0.69495,0.79674 0.33916,-0.56321 0.36498,-1.36037 -0.56614,-0.0493 5.37892,-0.50664 5.77077,-0.62668 0.17679,-0.005 0.2835,2.94158 0.0374,2.15852 -0.43109,0.34713 -2.81233,0.23216 -2.34794,-0.23993 0.15316,-0.20132 -2.68495,3.87635 -3.46148,4.54463 0.30083,0.18777 2.83371,5.72476 3.5114,5.21616 -0.66813,-0.0679 2.5694,1.06137 1.9879,1.58801 0.0971,-0.72044 0.42892,0.41328 0.11335,0.73413"
       inkscape:export-xdpi="162.48436"
       inkscape:export-ydpi="162.48436" />
    <path
       inkscape:connector-curvature="0"
       id="path11778"
       style="font-style:normal;font-variant:normal;font-weight:500;font-stretch:normal;font-size:16.39614105px;line-height:1.25;font-family:'Inknut Antiqua';-inkscape-font-specification:'Inknut Antiqua Medium';text-align:center;letter-spacing:0px;word-spacing:0px;text-anchor:middle;fill:#2b0000;fill-opacity:1;stroke:none;stroke-width:0.43918234"
       d="m 198.04495,222.85758 c 0.37423,0.013 -5.19271,-1.31255 -5.25113,-1.17861 -0.39667,-0.005 0.14592,0.39181 -0.12997,-0.32703 -0.49942,0.71946 1.81192,-0.43557 1.30816,-0.92177 -0.2095,0.31121 -1.71601,-3.10954 -2.3758,-2.91467 -0.39259,-0.47781 -2.78786,4.17615 -2.72854,3.6427 0.009,-0.0196 0.10321,1.74628 0.80684,1.16037 0.51327,-0.43976 -0.30649,0.90296 0.0426,0.54914 0.53168,-0.64526 -5.15017,-1.38071 -4.68204,-1.32969 -0.54991,-0.23432 -0.70268,-0.0123 -0.45963,-0.15066 -0.53221,0.7205 2.55791,-0.92882 2.9148,-1.33723 -0.13599,0.52138 2.71685,-3.80807 3.41273,-4.332 -0.48508,0.58522 -4.80486,-4.62251 -4.24958,-4.21891 -0.22759,-0.37385 -1.35786,-1.69975 -1.83192,-1.46292 -0.56433,-0.44217 1.1824,-1.12101 1.0786,-0.70574 -0.76657,-0.59936 4.58584,-0.14564 4.46596,-0.47758 0.014,-0.27107 -0.044,1.17345 0.0736,1.92686 0.0135,0.32606 -1.16239,-1.37457 -1.67351,-0.58819 0.66937,0.1381 4.47654,3.61666 4.34697,4.34891 0.44498,-0.5232 0.97922,-2.60219 1.69738,-2.62875 -0.68537,0.41403 -1.1989,-1.87785 -1.61184,-2.06957 0.16317,0.58927 -0.38481,-0.28769 0.3842,0.15202 0.2649,0.67491 4.10046,0.85045 4.86265,0.18851 -0.66657,-0.51982 -0.0585,0.43869 -0.64397,-0.34579 -0.73893,0.30176 -0.57129,2.18331 -0.68787,1.92995 0.27969,-0.10418 -4.27857,3.0188 -3.71297,3.72365 0.005,-0.762 3.18436,5.27955 3.62892,5.93322 0.16639,0.12872 2.10587,-0.42284 1.71151,-0.27664 -0.36539,-0.46073 -0.24144,2.37146 0.071,1.89128"
       inkscape:export-xdpi="162.48436"
       inkscape:export-ydpi="162.48436" />
  </g>
</svg>
