<?xml version="1.0" encoding="UTF-8" standalone="no"?>
<svg
   xmlns:dc="http://purl.org/dc/elements/1.1/"
   xmlns:cc="http://creativecommons.org/ns#"
   xmlns:rdf="http://www.w3.org/1999/02/22-rdf-syntax-ns#"
   xmlns:svg="http://www.w3.org/2000/svg"
   xmlns="http://www.w3.org/2000/svg"
   xmlns:sodipodi="http://sodipodi.sourceforge.net/DTD/sodipodi-0.dtd"
   xmlns:inkscape="http://www.inkscape.org/namespaces/inkscape"
   width="161.17445mm"
   height="51.557438mm"
   viewBox="0 0 161.17445 51.557438"
   version="1.1"
   id="svg9809"
   inkscape:version="1.0.1 (3bc2e813f5, 2020-09-07)"
   sodipodi:docname="Logo.svg">
  <defs
     id="defs9803" />
  <sodipodi:namedview
     id="base"
     pagecolor="#ffffff"
     bordercolor="#666666"
     borderopacity="1.0"
     inkscape:pageopacity="0.0"
     inkscape:pageshadow="2"
     inkscape:zoom="0.7"
     inkscape:cx="-62.115066"
     inkscape:cy="395.8165"
     inkscape:document-units="mm"
     inkscape:current-layer="layer1"
     inkscape:document-rotation="0"
     showgrid="false"
     fit-margin-top="10"
     fit-margin-left="10"
     fit-margin-right="10"
     fit-margin-bottom="10"
     inkscape:window-width="3347"
     inkscape:window-height="1417"
     inkscape:window-x="-8"
     inkscape:window-y="-8"
     inkscape:window-maximized="1" />
  <metadata
     id="metadata9806">
    <rdf:RDF>
      <cc:Work
         rdf:about="">
        <dc:format>image/svg+xml</dc:format>
        <dc:type
           rdf:resource="http://purl.org/dc/dcmitype/StillImage" />
        <dc:title></dc:title>
      </cc:Work>
    </rdf:RDF>
  </metadata>
  <g
     inkscape:label="Layer 1"
     inkscape:groupmode="layer"
     id="layer1"
     transform="translate(-255.81158,57.528721)">
    <path
       d="m 274.31734,-26.791101 c 0.0916,-0.214309 -7.90812,-0.30525 -8.0736,-0.0477 0.15235,-0.13158 0.24424,-1.257561 0.29777,-1.34302 -0.11062,-0.0768 2.3839,-1.926511 2.19158,-1.75964 0.16358,-0.251321 -0.16796,-8.622781 0.0886,-8.473351 0.0543,-0.15372 -3.098,-0.47423 -3.00823,-0.28031 0.008,0.0885 1.35953,-1.71823 1.12512,-1.72735 -0.2216,-0.21145 8.24345,0.30405 8.19311,0.0932 0.10746,-0.0109 -0.0164,1.39294 -0.14986,1.45092 0.26936,0.12387 -1.98763,1.50328 -2.19636,1.3997 0.0495,-0.0685 0.32527,8.01079 0.0615,8.23313 -0.0825,-0.0554 2.48192,0.82217 2.5812,0.87962 0.19348,-0.225549 -0.66715,1.331041 -0.62997,1.39398"
       style="font-style:normal;font-variant:normal;font-weight:bold;font-stretch:normal;font-size:68.6118px;line-height:1.25;font-family:'Inknut Antiqua';-inkscape-font-specification:'Inknut Antiqua Bold';letter-spacing:0px;word-spacing:0px;display:inline;fill:#550000;fill-opacity:1;stroke:none;stroke-width:0.624962"
       id="path7764"
       inkscape:connector-curvature="0"
       inkscape:export-filename="E:\Dropbox\18Dracula\1.2\Board18ish\Map Only.png"
       inkscape:export-xdpi="96"
       inkscape:export-ydpi="96" />
    <path
       d="m 288.2049,-38.443521 c 1.12504,0.8303 1.75706,0.93506 2.42253,1.48958 0.6352,0.47459 1.28842,1.30474 1.87315,2.09143 0.4801,0.73579 0.59977,0.8776 0.60427,1.794701 -0.1082,0.730229 -0.0542,1.624209 -1.08947,2.65782 -0.54032,0.97986 -1.69863,2.354499 -2.79196,2.778919 -1.06949,0.48588 -2.446,1.021081 -3.18443,1.19344 -1.56991,0.0602 -3.26701,-0.614819 -4.30367,-1.043299 -1.41127,-0.236231 -1.86181,-1.41717 -2.75153,-2.100341 -0.56348,-0.6714 -1.3803,-1.707659 -1.14988,-2.73888 0.0846,-1.044689 0.43424,-1.80794 1.15268,-2.39219 0.97194,-0.54305 1.77651,-1.38487 3.3623,-2.60509 -1.04748,-0.94352 -1.50062,-1.72616 -2.14683,-2.48204 -0.85805,-0.83409 -0.9094,-0.92455 -0.89778,-2.0968 0.0841,-0.91878 0.17366,-1.34046 1.17457,-2.40899 0.70607,-0.69039 1.34057,-1.86134 2.43113,-2.21823 1.12911,-0.82787 1.9354,-0.86308 2.80652,-0.76355 0.92727,0.26973 2.41895,-0.28468 3.10601,0.235 1.16199,0.38226 1.36934,1.04729 2.03724,1.43799 0.60456,0.71051 0.79129,1.66711 0.68945,2.42859 -0.21287,0.52529 -0.44772,1.15938 -0.76468,1.88209 -0.63646,0.62603 -1.70625,2.13621 -2.77969,3.17686 -0.0326,-0.24598 -0.17846,-0.31065 0.0722,-0.39016 m -2.60546,-7.00317 c -0.87521,0.17463 -0.79231,0.77918 -1.26902,0.95375 -0.51403,0.61081 -1.18469,0.69299 -0.94437,1.50148 0.073,0.56088 0.37967,1.40179 1.05363,1.81784 0.84181,0.50186 1.40596,1.55599 2.30193,2.13066 0.61429,-0.94781 0.60958,-1.49543 0.79651,-1.65285 -0.0332,-0.39014 0.34525,-1.18917 0.60627,-1.57988 -0.1024,-0.69457 -0.41079,-1.2654 -0.58806,-1.84128 -0.52355,-0.56447 -0.86373,-0.90617 -1.69634,-1.16424 0.24692,-0.0342 -0.24753,-0.08 -0.43477,-0.1116 m 0.89513,16.33243 c 0.97309,-0.14676 1.80635,-0.158809 2.15303,-0.7757 0.74561,-0.44734 0.0986,-1.00528 0.31651,-1.98864 -0.13402,-0.50041 0.38884,-1.0073 -0.16447,-1.33463 -0.51665,-0.46004 -1.27104,-0.79653 -1.70624,-1.33954 -0.57876,-0.29113 -1.74819,-0.84343 -2.5665,-1.67449 0.0317,-0.10327 -0.20472,0.0427 -0.24146,-0.22748 -0.69917,0.81334 -1.14362,0.90039 -1.4818,1.4724 -0.38099,0.22122 -0.48653,1.52572 -0.4161,1.84027 -0.17839,0.5975 -0.0327,1.16941 0.58497,1.84607 0.48309,0.499171 1.04939,1.178141 1.59336,1.598461 0.81628,0.649779 1.21501,1.059949 1.91547,1.021829 0.20368,0.26403 -0.22749,-0.3275 0.0139,-0.39198"
       style="font-style:normal;font-variant:normal;font-weight:bold;font-stretch:normal;font-size:68.6118px;line-height:1.25;font-family:'Inknut Antiqua';-inkscape-font-specification:'Inknut Antiqua Bold';letter-spacing:0px;word-spacing:0px;display:inline;fill:#550000;fill-opacity:1;stroke:none;stroke-width:0.624962"
       id="path7766"
       inkscape:connector-curvature="0"
       inkscape:export-filename="E:\Dropbox\18Dracula\1.2\Board18ish\Map Only.png"
       inkscape:export-xdpi="96"
       inkscape:export-ydpi="96" />
    <path
       d="m 305.70732,-45.702771 c 1.99446,-0.0461 3.25774,0.59604 4.7161,1.26405 1.25417,0.69426 2.31874,2.12501 3.00703,3.34991 0.72535,1.1395 1.48679,2.88779 1.28372,4.70569 0.23181,2.00125 -0.66455,3.153581 -1.92251,4.55382 -1.3138,1.246791 -2.39947,2.76609 -4.17145,3.5962 -1.63117,0.70356 -2.74778,1.67833 -4.40534,1.4782 -0.8905,0.124091 -1.69199,0.04 -2.27508,0.0927 -1.12038,0.12033 -2.17351,-0.50737 -2.86264,-0.260899 0.23773,-0.26675 -3.61637,0.0965 -3.5915,0.075 -0.12162,0.15935 0.14954,-1.23444 -0.0516,-1.176099 0.20882,0.0202 2.62584,-1.982671 2.58319,-2.088281 -0.0475,0.12415 -0.55434,-12.84443 -0.36868,-13.10076 -0.0243,0.27036 -2.65768,-0.64307 -2.45803,-0.47094 -0.0627,-0.24839 0.29311,-1.92711 0.53591,-1.66863 0.12603,-0.0216 3.39639,-0.0914 3.56971,0.12698 1.69223,-0.17752 2.27491,-0.0818 3.9116,-0.14868 1.09504,-0.17126 2.20082,-0.39298 2.39706,-0.33805 0.20885,-0.004 0.5918,-0.10868 0.36825,0.0296 m -1.04752,16.55404 c 0.786,0.27164 1.89968,0.18019 2.52632,-0.31974 0.91554,-0.51505 1.51822,-1.47052 1.73901,-2.367609 0.26004,-0.993311 1.26697,-2.420461 1.05856,-3.590121 -0.0131,-1.4665 -0.18987,-2.62224 -0.69812,-4.02815 -0.6127,-1.43607 -1.23904,-2.21809 -2.40338,-2.78194 -0.91062,-0.46019 -1.90578,-1.37898 -3.12008,-1.36938 -0.65549,0.21306 -1.21539,0.26652 -1.89913,0.69808 -0.25343,-0.0503 -0.30836,13.59254 -0.0465,13.65267 0.86373,0.32068 1.75004,0.619641 2.7474,0.593841 0.10396,-0.0249 -0.0919,0.0264 -0.0661,-0.0581"
       style="font-style:normal;font-variant:normal;font-weight:bold;font-stretch:normal;font-size:68.6118px;line-height:1.25;font-family:'Inknut Antiqua';-inkscape-font-specification:'Inknut Antiqua Bold';letter-spacing:0px;word-spacing:0px;display:inline;fill:#550000;fill-opacity:1;stroke:none;stroke-width:0.624962"
       id="path7768"
       inkscape:connector-curvature="0"
       inkscape:export-filename="E:\Dropbox\18Dracula\1.2\Board18ish\Map Only.png"
       inkscape:export-xdpi="96"
       inkscape:export-ydpi="96" />
    <path
       d="m 324.78644,-36.482111 c -0.50639,0.21356 -1.35352,0.26875 -1.77386,0.88125 0.1685,0.11549 -0.40509,6.229251 -0.13784,6.1093 -0.20895,0.21614 3.52004,1.228371 3.40629,1.218981 0.0667,-0.003 -0.42548,1.116539 -0.37571,1.272339 -0.21397,0.10378 -9.43485,-0.28 -9.23885,-0.189119 -0.08,-0.0728 0.14704,-1.239151 0.0548,-1.13123 0.1174,-0.18053 2.56547,-1.857611 2.40954,-1.930561 0.12266,0.16612 -0.0306,-5.3949 -0.19678,-5.208069 -0.14896,0.0661 -2.13942,-1.029921 -2.20058,-0.925461 -0.0168,-0.16132 0.27062,-1.18235 0.27487,-1.43405 -0.13166,0.14217 4.97528,-2.55998 4.93119,-2.30966 -0.0291,0.15961 0.36097,2.72723 0.60735,2.95554 -0.22381,-0.004 2.34616,-2.37194 2.41354,-2.27518 0.44618,-0.21229 0.60455,-0.53523 0.80517,-0.37796 0.59752,-0.16403 1.55568,0.13269 2.30718,0.56769 0.8512,0.58561 0.91293,1.04814 1.39883,1.60972 0.0261,0.20783 -2.27505,2.68491 -2.24197,2.68704 0.20827,-0.17465 -1.98201,0.0895 -1.91304,-0.10316 0.15835,-0.5694 0.47652,-0.51226 0.0774,-0.69464 -0.14578,-0.38518 -0.43643,-0.55581 -0.81502,-0.66249 -0.19845,0.10585 0.33461,0.0911 0.25817,0.0459"
       style="font-style:normal;font-variant:normal;font-weight:bold;font-stretch:normal;font-size:68.6118px;line-height:1.25;font-family:'Inknut Antiqua';-inkscape-font-specification:'Inknut Antiqua Bold';letter-spacing:0px;word-spacing:0px;display:inline;fill:#550000;fill-opacity:1;stroke:none;stroke-width:0.624962"
       id="path7770"
       inkscape:connector-curvature="0"
       inkscape:export-filename="E:\Dropbox\18Dracula\1.2\Board18ish\Map Only.png"
       inkscape:export-xdpi="96"
       inkscape:export-ydpi="96" />
    <path
       d="m 342.99893,-26.747281 c -0.0585,0.086 -4.92327,0.247621 -5.07784,0.0506 0.0198,0.23954 0.058,-2.0763 -0.11392,-2.07718 0.10726,-0.087 -2.34042,2.27852 -2.40392,2.044091 -0.44176,-0.0466 -0.98585,0.371219 -1.26143,0.247569 -1.25201,-0.10346 -2.7018,-0.43419 -3.43873,-1.21372 -0.71444,-0.480469 -0.73297,-1.58307 -0.83085,-2.71375 -0.0896,-0.8511 -0.13963,-1.48234 0.45575,-2.05246 0.33725,-0.46342 0.85004,-1.21945 1.76736,-1.5141 -0.0892,-0.2518 6.07447,0.0363 5.80623,0.0941 -0.18032,-0.19726 -0.40389,-0.50325 -0.21968,-0.3854 0.16334,-0.83196 -0.17217,-1.50102 -0.59792,-1.66455 -0.51984,-0.38825 -1.07947,-0.80307 -1.70366,-0.71303 -1.06557,0.0768 -2.17222,0.63197 -4.19922,1.31114 -0.0295,0.1234 -0.35022,-1.19036 -0.59027,-1.43914 0.25967,0.0762 2.98893,-2.81656 3.20405,-2.8557 0.62639,-0.051 1.13874,0.0787 2.3431,0.15539 1.68979,0.0185 2.88078,0.083 4.06362,0.7236 1.1005,0.92611 1.69829,2.03892 1.86982,3.53442 0.0326,-0.26533 -0.45029,6.22622 -0.38203,5.99567 0.16237,0.0321 2.05983,0.900751 2.04422,0.80385 -0.0777,0.016 -0.44375,1.6818 -0.33466,1.409831 m -7.90029,-2.608401 c 0.7807,-0.19759 1.80926,-0.23379 2.59803,-1.071279 0.14196,0.0105 -0.1142,-1.654391 -0.34737,-1.53289 0.0676,0.0223 -3.88911,0.256569 -3.85134,0.029 -0.0984,0.20165 0.0599,0.24865 0.19131,0.18893 -0.0117,0.0285 -0.0566,0.256081 -0.26308,0.55977 0.25184,0.25424 0.32803,0.44109 0.44189,0.96459 0.46614,0.0606 0.6381,0.61315 1.25101,0.61002 -0.1758,-0.10827 -0.0849,0.29367 -0.012,0.10487"
       style="font-style:normal;font-variant:normal;font-weight:bold;font-stretch:normal;font-size:68.6118px;line-height:1.25;font-family:'Inknut Antiqua';-inkscape-font-specification:'Inknut Antiqua Bold';letter-spacing:0px;word-spacing:0px;display:inline;fill:#550000;fill-opacity:1;stroke:none;stroke-width:0.624962"
       id="path7772"
       inkscape:connector-curvature="0"
       inkscape:export-filename="E:\Dropbox\18Dracula\1.2\Board18ish\Map Only.png"
       inkscape:export-xdpi="96"
       inkscape:export-ydpi="96" />
    <path
       d="m 353.06139,-39.499021 c 0.55423,-0.14274 1.86635,-0.0662 2.5731,0.0444 0.79951,-0.0252 1.41546,0.40717 1.98554,0.60837 0.22454,0.029 -0.0298,3.97393 -0.18034,4.13363 0.24866,-0.19654 -1.47228,0.35824 -1.22736,0.35653 -0.34886,-1.03164 -1.31734,-1.46572 -2.06549,-2.1552 -0.88342,-0.36876 -1.39004,-0.28573 -2.28121,-0.42179 -0.45548,-0.0565 -1.00189,-0.11268 -1.50608,0.47222 -0.41087,0.51431 -0.39132,1.53927 -0.62941,2.44854 0.11569,1.09371 0.28962,2.01502 0.98941,3.06567 0.50514,0.70024 1.17076,1.36272 2.39597,1.394641 1.1913,-0.144951 2.34553,-0.17535 4.42317,-1.348411 0.0177,-0.24457 0.71805,1.41112 0.64631,1.22638 -0.0465,0.0418 -3.38157,2.460941 -3.36379,2.44815 -1.0832,0.415721 -2.39528,0.33667 -3.3511,0.508631 -1.24185,0.123799 -1.93101,-0.2692 -3.03585,-0.64937 -1.00674,-0.629831 -1.41375,-1.360001 -1.97437,-2.423231 -0.5512,-1.01068 -0.85813,-1.45933 -0.89488,-2.79969 -0.21845,-1.0423 0.8893,-2.61753 1.49374,-3.40612 0.93401,-1.33003 1.54008,-1.94777 2.42276,-2.51925 1.325,-0.54114 2.42151,-1.17364 3.47907,-0.96244 -0.0724,-0.0118 -0.42696,-0.26624 -0.29914,-0.14742"
       style="font-style:normal;font-variant:normal;font-weight:bold;font-stretch:normal;font-size:68.6118px;line-height:1.25;font-family:'Inknut Antiqua';-inkscape-font-specification:'Inknut Antiqua Bold';letter-spacing:0px;word-spacing:0px;display:inline;fill:#550000;fill-opacity:1;stroke:none;stroke-width:0.624962"
       id="path7774"
       inkscape:connector-curvature="0"
       inkscape:export-filename="E:\Dropbox\18Dracula\1.2\Board18ish\Map Only.png"
       inkscape:export-xdpi="96"
       inkscape:export-ydpi="96" />
    <path
       d="m 374.72026,-27.085331 c -0.25379,-0.035 -5.13964,0.332321 -5.32941,0.33237 0.1181,-0.11462 0.38357,-2.09407 0.37488,-2.061659 -0.0111,-0.142571 -2.95664,1.98926 -2.76402,1.98955 -0.27396,0.0751 -1.02944,0.2222 -1.46901,0.218659 -1.16116,-0.22576 -2.20552,-0.446 -2.87906,-0.919459 -0.50933,-0.665001 -0.94572,-2.06169 -0.77568,-2.904091 -0.0433,-0.23269 -0.48028,-4.7119 -0.28453,-4.70938 -0.0899,-0.10669 -2.21465,-1.40354 -1.95509,-1.48516 0.0461,-0.16432 0.0984,-1.28648 -0.1699,-1.32484 -0.22317,-0.0702 4.74638,-2.132 4.70711,-1.96861 0.22788,-0.0353 1.87129,0.25409 1.79476,0.32011 0.13389,-0.18291 -0.18795,7.49956 -0.39119,7.44694 -0.0765,0.49653 0.5356,1.51636 0.53887,1.89762 0.2584,0.24651 0.69046,0.0262 1.13886,0.15103 1.03405,0.215111 1.88275,-0.44586 2.59823,-0.97047 0.0565,0.23037 -0.28001,-3.99766 -0.20865,-4.23872 0.004,0.0881 -1.85066,-1.26112 -1.89032,-1.24946 -0.0227,0.21761 0.0618,-1.38959 -0.0673,-1.45576 -0.0654,-0.22921 4.4644,-1.76583 4.61786,-1.55077 -0.14123,0.0816 0.86206,-0.3311 1.11363,-0.0997 -0.26362,0.23372 -0.24932,10.779581 0.008,10.59891 0.20502,-0.0421 1.91187,0.40017 2.01461,0.55959 0.11717,0.243871 -0.57808,1.22374 -0.4069,1.339241"
       style="font-style:normal;font-variant:normal;font-weight:bold;font-stretch:normal;font-size:68.6118px;line-height:1.25;font-family:'Inknut Antiqua';-inkscape-font-specification:'Inknut Antiqua Bold';letter-spacing:0px;word-spacing:0px;display:inline;fill:#550000;fill-opacity:1;stroke:none;stroke-width:0.624962"
       id="path7776"
       inkscape:connector-curvature="0"
       inkscape:export-filename="E:\Dropbox\18Dracula\1.2\Board18ish\Map Only.png"
       inkscape:export-xdpi="96"
       inkscape:export-ydpi="96" />
    <path
       d="m 383.81043,-26.856451 c 2.5e-4,-0.0251 -7.12767,-0.12875 -7.36084,-0.0348 -0.079,-0.146821 0.17581,-1.181411 0.38969,-1.362201 -0.2053,-0.002 2.24925,-2.16964 2.0986,-1.905079 0.0134,0.108509 -0.5604,-12.804201 -0.41503,-12.842131 0.19538,-0.23947 -1.61286,-0.81215 -1.86322,-1.00833 -0.0261,0.27019 0.027,-1.61489 -0.10883,-1.68601 0.0483,0.084 4.39456,-1.71986 4.64696,-1.47751 -0.0523,0.0559 1.68319,-0.1123 1.55897,-0.35581 0.16327,-0.100409 -0.0265,18.772591 -0.22983,18.592591 0.095,0.0351 2.43054,0.522031 2.46681,0.29078 -0.0439,0.0105 -1.15416,1.75368 -1.12672,1.67429"
       style="font-style:normal;font-variant:normal;font-weight:bold;font-stretch:normal;font-size:68.6118px;line-height:1.25;font-family:'Inknut Antiqua';-inkscape-font-specification:'Inknut Antiqua Bold';letter-spacing:0px;word-spacing:0px;display:inline;fill:#550000;fill-opacity:1;stroke:none;stroke-width:0.624962"
       id="path7778"
       inkscape:connector-curvature="0"
       inkscape:export-filename="E:\Dropbox\18Dracula\1.2\Board18ish\Map Only.png"
       inkscape:export-xdpi="96"
       inkscape:export-ydpi="96" />
    <path
       d="m 399.58114,-26.910661 c 0.12984,-0.21363 -5.04919,-0.5164 -5.23001,-0.285299 0.2632,0.249479 -0.48855,-1.931341 -0.31045,-1.924841 -0.0603,-0.0434 -2.20164,2.358751 -2.14721,2.1922 -0.42382,0.26431 -0.96461,0.31359 -1.65084,0.358511 -1.34488,-0.177251 -1.93664,-0.407661 -2.74281,-1.14374 -0.86155,-0.70778 -0.81192,-1.932131 -1.02935,-2.7962 -0.0635,-0.816381 -0.24655,-1.042021 0.29097,-1.678491 0.25682,-0.64108 0.58817,-1.19154 1.55126,-1.42867 -0.10376,0.0555 6.03238,-0.358619 6.08224,-0.37731 -0.24297,-0.26292 -0.16499,-0.258559 -0.0752,-0.14458 -0.25294,-0.78838 -0.0867,-1.80407 -0.48063,-2.24532 -0.23463,-0.60691 -1.34641,-0.47983 -2.2829,-0.25166 -1.26972,-0.19049 -2.57759,0.40818 -4.1299,1.39066 0.0585,0.1792 -0.76782,-1.47717 -0.81711,-1.59231 -0.1424,0.21572 3.46771,-2.55489 3.39614,-2.75637 0.88956,0.0383 1.62789,0.35845 2.72696,0.11418 1.59,-0.0316 2.97532,-0.0492 4.11156,0.92624 1.19625,0.98083 1.87534,1.98527 1.60551,3.62169 -0.0377,0.0922 -0.2832,5.700791 -0.46619,5.430231 -0.0254,0.25288 2.14182,1.355599 2.28179,1.108919 0.26786,-0.239509 -0.48347,1.03286 -0.48582,1.289581 m -8.18538,-2.683731 c 0.97114,0.234961 1.56579,-0.661509 2.55273,-1.06217 -0.24295,0.21962 0.47434,-1.55336 0.26732,-1.65484 0.22072,0.0555 -4.30157,0.64983 -4.12411,0.44652 -0.0284,0.19213 -0.15356,0.59764 -0.26298,0.526 -0.12415,-0.007 0.30256,0.28373 0.0764,0.31894 -0.0594,0.17996 0.42116,0.78499 0.51754,0.7822 0.13743,0.49247 0.14696,0.596421 0.84046,0.45485 -0.1641,0.206441 0.5921,-0.1118 0.33151,-0.036"
       style="font-style:normal;font-variant:normal;font-weight:bold;font-stretch:normal;font-size:68.6118px;line-height:1.25;font-family:'Inknut Antiqua';-inkscape-font-specification:'Inknut Antiqua Bold';letter-spacing:0px;word-spacing:0px;display:inline;fill:#550000;fill-opacity:1;stroke:none;stroke-width:0.624962"
       id="path7780"
       inkscape:connector-curvature="0"
       inkscape:export-filename="E:\Dropbox\18Dracula\1.2\Board18ish\Map Only.png"
       inkscape:export-xdpi="96"
       inkscape:export-ydpi="96" />
    <g
       transform="matrix(0.340057,0,0,0.340057,292.32821,-147.02113)"
       aria-label="Medieval Edition"
       style="font-style:normal;font-variant:normal;font-weight:normal;font-stretch:normal;font-size:26.6651px;line-height:1.25;font-family:'Inknut Antiqua';-inkscape-font-specification:'Inknut Antiqua';letter-spacing:0px;word-spacing:0px;display:inline;fill:#550000;fill-opacity:1;stroke:none;stroke-width:1.11104"
       id="text841"
       inkscape:export-filename="E:\Dropbox\18Dracula\1.2\Board18ish\Map Only.png"
       inkscape:export-xdpi="96"
       inkscape:export-ydpi="96">
      <path
         inkscape:connector-curvature="0"
         d="m 39.837175,384.92281 h -8.106182 v -0.82661 l 2.506517,-1.97322 V 367.3772 l -7.119574,17.54561 h -1.466578 l -7.066244,-17.73227 v 15.25242 l 2.799832,1.41325 -0.533301,1.0666 h -6.239626 v -0.82661 l 2.506516,-1.97322 v -15.62573 l -2.773167,-1.49324 0.533301,-1.06661 h 5.78632 l 6.666268,16.74567 6.639602,-16.74567 h 6.132966 v 0.82662 l -2.533181,1.97322 v 16.13236 l 2.799832,0.98661 z"
         style="font-style:normal;font-variant:normal;font-weight:normal;font-stretch:normal;font-family:'Inknut Antiqua';-inkscape-font-specification:'Inknut Antiqua';fill:#550000;fill-opacity:1;stroke-width:1.11104"
         id="path851" />
      <path
         inkscape:connector-curvature="0"
         d="m 52.26768,384.94948 q -1.066603,0.21332 -2.559847,0.21332 -1.759895,0 -3.173143,-0.90661 -1.386584,-0.93328 -2.186536,-2.50652 -0.773287,-1.57324 -0.773287,-3.46646 0,-2.05321 1.253258,-3.83977 1.253258,-1.81322 3.119813,-2.87983 1.89322,-1.09326 3.653115,-1.09326 2.533181,0 3.919765,1.99988 1.413249,1.99988 1.413249,5.27968 h -9.866076 q 0.15999,2.26653 1.226593,3.70644 1.093268,1.43992 2.959823,1.43992 1.733229,0 4.933038,-2.69317 l 0.799952,1.01327 z m -2.213201,-12.23927 q -2.879828,0 -3.013153,3.94643 h 6.239626 q -0.239985,-1.43991 -0.506636,-2.18653 -0.239986,-0.77329 -0.879947,-1.25326 -0.613297,-0.50664 -1.83989,-0.50664 z"
         style="font-style:normal;font-variant:normal;font-weight:normal;font-stretch:normal;font-family:'Inknut Antiqua';-inkscape-font-specification:'Inknut Antiqua';fill:#550000;fill-opacity:1;stroke-width:1.11104"
         id="path853" />
      <path
         inkscape:connector-curvature="0"
         d="m 76.414985,384.89615 h -5.066364 v -1.91989 l -2.479851,1.97322 q -0.853282,0.21332 -2.05321,0.21332 -1.759895,0 -3.173144,-0.90661 -1.386583,-0.93328 -2.186535,-2.50652 -0.773287,-1.57324 -0.773287,-3.46646 0,-2.05321 1.253258,-3.83977 1.253258,-1.81322 3.119813,-2.87983 1.89322,-1.09326 3.653115,-1.09326 1.466578,0 2.666507,0.82661 v -5.493 l -2.373192,-1.65324 v -0.82661 l 4.559727,-1.70657 h 1.013273 v 21.27873 l 2.373191,0.93328 z m -8.239507,-1.99988 q 0.799952,0 1.519909,-0.21332 0.746622,-0.23999 1.653234,-0.87995 v -6.07964 q -0.15999,-1.33325 -1.253258,-2.15987 -1.066603,-0.85328 -2.933157,-0.85328 -3.013153,0 -3.013153,4.29308 0,2.50651 1.039937,4.21308 1.039938,1.6799 2.986488,1.6799 z"
         style="font-style:normal;font-variant:normal;font-weight:normal;font-stretch:normal;font-family:'Inknut Antiqua';-inkscape-font-specification:'Inknut Antiqua';fill:#550000;fill-opacity:1;stroke-width:1.11104"
         id="path855" />
      <path
         inkscape:connector-curvature="0"
         d="m 86.549794,384.89615 h -7.439555 v -0.82662 l 2.373192,-1.86655 v -7.7862 l -2.373192,-1.65324 v -0.82662 l 4.559727,-1.70656 h 1.013273 v 12.66591 l 2.399856,0.93328 z m -3.57312,-22.66531 q 0.799953,0 1.306589,0.58663 0.533301,0.58663 0.533301,1.46658 0,0.6133 -0.373311,1.17326 -0.373311,0.5333 -0.933277,0.85329 -0.559967,0.31998 -1.093268,0.31998 -0.799952,0 -1.333253,-0.58664 -0.506637,-0.58663 -0.506637,-1.46657 0,-0.6133 0.373311,-1.1466 0.373311,-0.55997 0.933278,-0.87995 0.559966,-0.31998 1.093267,-0.31998 z"
         style="font-style:normal;font-variant:normal;font-weight:normal;font-stretch:normal;font-family:'Inknut Antiqua';-inkscape-font-specification:'Inknut Antiqua';fill:#550000;fill-opacity:1;stroke-width:1.11104"
         id="path857" />
      <path
         inkscape:connector-curvature="0"
         d="m 98.566988,384.94948 q -1.066602,0.21332 -2.559846,0.21332 -1.759895,0 -3.173144,-0.90661 -1.386583,-0.93328 -2.186535,-2.50652 -0.773287,-1.57324 -0.773287,-3.46646 0,-2.05321 1.253258,-3.83977 1.253258,-1.81322 3.119813,-2.87983 1.89322,-1.09326 3.653115,-1.09326 2.533178,0 3.919768,1.99988 1.41325,1.99988 1.41325,5.27968 H 93.3673 q 0.15999,2.26653 1.226593,3.70644 1.093268,1.43992 2.959823,1.43992 1.733229,0 4.933034,-2.69317 l 0.79996,1.01327 z m -2.2132,-12.23927 q -2.879828,0 -3.013153,3.94643 h 6.239626 q -0.239986,-1.43991 -0.506636,-2.18653 -0.239986,-0.77329 -0.879948,-1.25326 -0.613296,-0.50664 -1.839889,-0.50664 z"
         style="font-style:normal;font-variant:normal;font-weight:normal;font-stretch:normal;font-family:'Inknut Antiqua';-inkscape-font-specification:'Inknut Antiqua';fill:#550000;fill-opacity:1;stroke-width:1.11104"
         id="path859" />
      <path
         inkscape:connector-curvature="0"
         d="m 120.68775,371.56361 -6.74626,13.33254 h -2.02655 l -4.15975,-10.15939 -2.47985,-1.43992 v -0.82661 l 4.55972,-2.23987 1.01328,4.02643 3.25314,7.94619 3.75977,-7.81287 -3.54645,-2.58651 0.5333,-1.0666 h 5.83965 z"
         style="font-style:normal;font-variant:normal;font-weight:normal;font-stretch:normal;font-family:'Inknut Antiqua';-inkscape-font-specification:'Inknut Antiqua';fill:#550000;fill-opacity:1;stroke-width:1.11104"
         id="path861" />
      <path
         inkscape:connector-curvature="0"
         d="m 136.48972,384.89615 h -5.06637 v -2.31986 l -3.01315,2.37319 q -0.5333,0.21332 -1.33325,0.21332 -2.2932,0 -3.33314,-1.1466 -1.01327,-1.1466 -1.01327,-2.7465 0,-0.95994 0.69329,-1.89322 0.69329,-0.93328 1.97322,-1.7599 h 6.0263 v -1.70656 q 0,-1.73323 -0.93327,-2.45319 -0.90662,-0.71995 -2.50652,-0.71995 -1.65323,0 -4.05309,1.99988 l -0.79995,-1.01328 3.83977,-3.03981 q 1.0666,-0.21332 2.55984,-0.21332 2.42653,0 3.75978,1.19992 1.33325,1.17327 1.33325,3.4398 v 7.7862 l 2.39986,0.93328 z m -8.55949,-1.99988 q 1.62657,0 3.49312,-1.49325 v -2.69317 h -4.71971 q -0.34665,0.42664 -0.50664,0.85328 -0.13332,0.42665 -0.13332,0.93328 0,0.98661 0.50663,1.70657 0.50664,0.69329 1.35992,0.69329 z"
         style="font-style:normal;font-variant:normal;font-weight:normal;font-stretch:normal;font-family:'Inknut Antiqua';-inkscape-font-specification:'Inknut Antiqua';fill:#550000;fill-opacity:1;stroke-width:1.11104"
         id="path863" />
      <path
         inkscape:connector-curvature="0"
         d="m 146.06498,384.89615 h -7.43956 v -0.82662 l 2.37319,-1.86655 v -16.39902 l -2.37319,-1.65324 v -0.82661 l 4.55973,-1.70657 h 1.01327 v 21.27873 l 2.39986,0.93328 z"
         style="font-style:normal;font-variant:normal;font-weight:normal;font-stretch:normal;font-family:'Inknut Antiqua';-inkscape-font-specification:'Inknut Antiqua';fill:#550000;fill-opacity:1;stroke-width:1.11104"
         id="path865" />
      <path
         inkscape:connector-curvature="0"
         d="m 172.58172,384.89615 h -15.99904 v -0.82662 l 2.50651,-1.97321 v -16.15904 l -2.77316,-0.93327 0.5333,-1.06661 h 15.46574 l 1.43991,-0.47997 v 6.13297 l -0.79995,0.26665 -3.17314,-4.71972 h -7.35956 v 8.45283 h 4.18641 l 1.94655,-3.41313 h 0.82662 v 8.10618 l -1.0666,0.5333 -1.6799,-4.02642 h -4.21308 v 8.90613 h 7.2529 l 3.54645,-5.25302 0.79995,0.26665 v 6.66627 z"
         style="font-style:normal;font-variant:normal;font-weight:normal;font-stretch:normal;font-family:'Inknut Antiqua';-inkscape-font-specification:'Inknut Antiqua';fill:#550000;fill-opacity:1;stroke-width:1.11104"
         id="path867" />
      <path
         inkscape:connector-curvature="0"
         d="m 194.27251,384.89615 h -5.06637 v -1.91989 l -2.47985,1.97322 q -0.85328,0.21332 -2.05321,0.21332 -1.75989,0 -3.17314,-0.90661 -1.38659,-0.93328 -2.18654,-2.50652 -0.77329,-1.57324 -0.77329,-3.46646 0,-2.05321 1.25326,-3.83977 1.25326,-1.81322 3.11982,-2.87983 1.89322,-1.09326 3.65311,-1.09326 1.46658,0 2.66651,0.82661 v -5.493 l -2.37319,-1.65324 v -0.82661 l 4.55972,-1.70657 h 1.01328 v 21.27873 l 2.37319,0.93328 z m -8.23951,-1.99988 q 0.79995,0 1.51991,-0.21332 0.74662,-0.23999 1.65323,-0.87995 v -6.07964 q -0.15999,-1.33325 -1.25326,-2.15987 -1.0666,-0.85328 -2.93315,-0.85328 -3.01316,0 -3.01316,4.29308 0,2.50651 1.03994,4.21308 1.03994,1.6799 2.98649,1.6799 z"
         style="font-style:normal;font-variant:normal;font-weight:normal;font-stretch:normal;font-family:'Inknut Antiqua';-inkscape-font-specification:'Inknut Antiqua';fill:#550000;fill-opacity:1;stroke-width:1.11104"
         id="path869" />
      <path
         inkscape:connector-curvature="0"
         d="m 204.40732,384.89615 h -7.43955 v -0.82662 l 2.37319,-1.86655 v -7.7862 l -2.37319,-1.65324 v -0.82662 l 4.55972,-1.70656 h 1.01328 v 12.66591 l 2.39985,0.93328 z m -3.57312,-22.66531 q 0.79996,0 1.30659,0.58663 0.5333,0.58663 0.5333,1.46658 0,0.6133 -0.37331,1.17326 -0.37331,0.5333 -0.93328,0.85329 -0.55996,0.31998 -1.09326,0.31998 -0.79996,0 -1.33326,-0.58664 -0.50663,-0.58663 -0.50663,-1.46657 0,-0.6133 0.37331,-1.1466 0.37331,-0.55997 0.93328,-0.87995 0.55996,-0.31998 1.09326,-0.31998 z"
         style="font-style:normal;font-variant:normal;font-weight:normal;font-stretch:normal;font-family:'Inknut Antiqua';-inkscape-font-specification:'Inknut Antiqua';fill:#550000;fill-opacity:1;stroke-width:1.11104"
         id="path871" />
      <path
         inkscape:connector-curvature="0"
         d="m 214.93127,384.94948 q -0.6133,0.21332 -1.49325,0.21332 -2.2132,0 -3.25314,-1.1466 -1.01327,-1.17326 -1.01327,-3.59978 v -7.7862 h -2.87983 v -1.09327 l 5.06637,-5.89298 h 1.01327 v 5.89298 h 4.79971 v 1.09327 h -4.79971 v 8.10618 q 0,2.15987 2.07987,2.15987 0.55997,0 1.06661,-0.23999 0.5333,-0.23998 1.30659,-0.85328 l 0.79995,1.01327 z"
         style="font-style:normal;font-variant:normal;font-weight:normal;font-stretch:normal;font-family:'Inknut Antiqua';-inkscape-font-specification:'Inknut Antiqua';fill:#550000;fill-opacity:1;stroke-width:1.11104"
         id="path873" />
      <path
         inkscape:connector-curvature="0"
         d="m 226.90596,384.89615 h -7.43955 v -0.82662 l 2.37319,-1.86655 v -7.7862 l -2.37319,-1.65324 v -0.82662 l 4.55973,-1.70656 h 1.01327 v 12.66591 l 2.39986,0.93328 z m -3.57311,-22.66531 q 0.79995,0 1.30658,0.58663 0.5333,0.58663 0.5333,1.46658 0,0.6133 -0.37331,1.17326 -0.37331,0.5333 -0.93327,0.85329 -0.55997,0.31998 -1.09327,0.31998 -0.79995,0 -1.33325,-0.58664 -0.50664,-0.58663 -0.50664,-1.46657 0,-0.6133 0.37331,-1.1466 0.37331,-0.55997 0.93328,-0.87995 0.55996,-0.31998 1.09327,-0.31998 z"
         style="font-style:normal;font-variant:normal;font-weight:normal;font-stretch:normal;font-family:'Inknut Antiqua';-inkscape-font-specification:'Inknut Antiqua';fill:#550000;fill-opacity:1;stroke-width:1.11104"
         id="path875" />
      <path
         inkscape:connector-curvature="0"
         d="m 238.25654,370.47035 q 1.75989,0 3.14648,0.93327 1.41325,0.90662 2.18653,2.47985 0.79996,1.57324 0.79996,3.46646 0,2.05321 -1.25326,3.86644 -1.25326,1.78656 -3.14648,2.87983 -1.86656,1.0666 -3.62645,1.0666 -1.75989,0 -3.17314,-0.90661 -1.38659,-0.93328 -2.18654,-2.50652 -0.77329,-1.57324 -0.77329,-3.46646 0,-2.05321 1.25326,-3.83977 1.25326,-1.81322 3.11982,-2.87983 1.89322,-1.09326 3.65311,-1.09326 z m -1.54657,2.23986 q -3.01316,0 -3.01316,4.29308 0,2.53318 1.09327,4.23974 1.09327,1.6799 3.11981,1.6799 3.01316,0 3.01316,-4.31974 0,-2.50651 -1.09327,-4.18641 -1.09327,-1.70657 -3.11981,-1.70657 z"
         style="font-style:normal;font-variant:normal;font-weight:normal;font-stretch:normal;font-family:'Inknut Antiqua';-inkscape-font-specification:'Inknut Antiqua';fill:#550000;fill-opacity:1;stroke-width:1.11104"
         id="path877" />
      <path
         inkscape:connector-curvature="0"
         d="m 264.25164,384.92281 h -5.06636 v -8.98612 q 0,-1.46658 -0.45331,-2.05322 -0.4533,-0.58663 -1.62656,-0.58663 -0.87995,0 -1.7599,0.31998 -0.85328,0.31999 -2.02654,1.2266 v 8.07951 l 2.39985,0.93328 -0.5333,1.0666 h -7.43955 v -0.82661 l 2.37319,-1.86656 v -7.54621 l -2.37319,-1.38659 v -0.82661 l 4.55972,-2.23987 0.87995,3.46646 3.78644,-3.01315 q 0.55997,-0.21332 1.46658,-0.21332 1.81322,0 2.87983,1.11993 1.0666,1.09327 1.0666,2.98649 v 8.3195 l 2.39986,0.95994 z"
         style="font-style:normal;font-variant:normal;font-weight:normal;font-stretch:normal;font-family:'Inknut Antiqua';-inkscape-font-specification:'Inknut Antiqua';fill:#550000;fill-opacity:1;stroke-width:1.11104"
         id="path879" />
    </g>
    <text
       id="text849"
       y="-29.836756"
       x="402.01627"
       style="font-style:normal;font-variant:normal;font-weight:normal;font-stretch:normal;font-size:19.9589px;line-height:1.25;font-family:'Inknut Antiqua';-inkscape-font-specification:'Inknut Antiqua';letter-spacing:0px;word-spacing:0px;display:inline;fill:#550000;fill-opacity:1;stroke:none;stroke-width:0.831622"
       xml:space="preserve"
       inkscape:export-filename="E:\Dropbox\18Dracula\1.2\Board18ish\Map Only.png"
       inkscape:export-xdpi="96"
       inkscape:export-ydpi="96"><tspan
         style="font-style:normal;font-variant:normal;font-weight:normal;font-stretch:normal;font-family:'Inknut Antiqua';-inkscape-font-specification:'Inknut Antiqua';fill:#550000;fill-opacity:1;stroke-width:0.831622"
         y="-29.836756"
         x="402.01627"
         id="tspan847"
         sodipodi:role="line">:</tspan></text>
  </g>
</svg>
